<svg xmlns="http://www.w3.org/2000/svg" width="640" height="420" viewBox="0 0 640 420" fill="none" role="img" aria-labelledby="title desc">
  <title id="title">About Pattern</title>
  <desc id="desc">Decorative card image with editorial-style layers.</desc>
  <defs>
    <linearGradient id="bg" x1="0" y1="0" x2="1" y2="1">
      <stop offset="0%" stop-color="#f7f1e6"/>
      <stop offset="100%" stop-color="#efe3cf"/>
    </linearGradient>
    <linearGradient id="accent" x1="0" y1="0" x2="1" y2="0">
      <stop offset="0%" stop-color="#1e4268"/>
      <stop offset="100%" stop-color="#2c6a72"/>
    </linearGradient>
  </defs>

  <rect width="640" height="420" rx="18" fill="url(#bg)"/>
  <rect x="36" y="40" width="568" height="152" rx="14" fill="#ffffff" fill-opacity="0.72"/>
  <rect x="36" y="212" width="270" height="172" rx="14" fill="#ffffff" fill-opacity="0.78"/>
  <rect x="324" y="212" width="280" height="172" rx="14" fill="#ffffff" fill-opacity="0.78"/>

  <rect x="58" y="64" width="160" height="16" rx="8" fill="#a52e24" fill-opacity="0.85"/>
  <rect x="58" y="96" width="420" height="10" rx="5" fill="#3e5874" fill-opacity="0.5"/>
  <rect x="58" y="117" width="500" height="10" rx="5" fill="#3e5874" fill-opacity="0.42"/>
  <rect x="58" y="138" width="460" height="10" rx="5" fill="#3e5874" fill-opacity="0.34"/>

  <rect x="58" y="238" width="220" height="10" rx="5" fill="#3c5776" fill-opacity="0.4"/>
  <rect x="58" y="260" width="190" height="10" rx="5" fill="#3c5776" fill-opacity="0.3"/>
  <rect x="58" y="282" width="230" height="10" rx="5" fill="#3c5776" fill-opacity="0.25"/>
  <rect x="58" y="304" width="170" height="10" rx="5" fill="#3c5776" fill-opacity="0.2"/>

  <path d="M352 336L386 306L425 318L456 275L504 294L542 248L584 265" stroke="url(#accent)" stroke-width="6" stroke-linecap="round" stroke-linejoin="round"/>
  <circle cx="386" cy="306" r="8" fill="#1e4268"/>
  <circle cx="456" cy="275" r="8" fill="#2c6a72"/>
  <circle cx="542" cy="248" r="8" fill="#a52e24"/>

  <rect x="36" y="16" width="190" height="8" rx="4" fill="#a52e24" fill-opacity="0.65"/>
  <rect x="240" y="16" width="116" height="8" rx="4" fill="#2c6a72" fill-opacity="0.45"/>
</svg>
