<svg xmlns="http://www.w3.org/2000/svg" width="1200" height="620" viewBox="0 0 1200 620" fill="none" role="img" aria-labelledby="title desc">
  <title id="title">Market Hero Abstract</title>
  <desc id="desc">Abstract layered shapes representing market movement and signal lines.</desc>
  <defs>
    <linearGradient id="g1" x1="0" y1="0" x2="1" y2="1">
      <stop offset="0%" stop-color="#173253"/>
      <stop offset="65%" stop-color="#0f2238"/>
      <stop offset="100%" stop-color="#0a1727"/>
    </linearGradient>
    <radialGradient id="g2" cx="0" cy="0" r="1" gradientUnits="userSpaceOnUse" gradientTransform="translate(920 80) rotate(138) scale(430 430)">
      <stop offset="0%" stop-color="#d1a45b" stop-opacity="0.52"/>
      <stop offset="100%" stop-color="#d1a45b" stop-opacity="0"/>
    </radialGradient>
    <linearGradient id="g3" x1="1200" y1="130" x2="220" y2="500" gradientUnits="userSpaceOnUse">
      <stop offset="0%" stop-color="#5f88b5" stop-opacity="0.3"/>
      <stop offset="100%" stop-color="#5f88b5" stop-opacity="0"/>
    </linearGradient>
  </defs>

  <rect width="1200" height="620" rx="18" fill="url(#g1)"/>
  <rect width="1200" height="620" rx="18" fill="url(#g2)"/>

  <path d="M-30 440C139 363 265 404 407 351C540 303 647 221 809 239C943 255 1020 347 1235 314V668H-30V440Z" fill="#1f3e63" fill-opacity="0.55"/>
  <path d="M-20 500C142 438 262 470 396 424C553 370 655 306 790 325C934 345 1045 421 1225 406V686H-20V500Z" fill="#0f2741" fill-opacity="0.72"/>
  <path d="M0 551C140 496 243 534 389 491C518 453 637 386 770 405C899 423 1005 505 1200 484V620H0V551Z" fill="#0a1d31" fill-opacity="0.86"/>

  <path d="M180 226C258 184 330 160 431 157C539 154 630 206 736 195C823 185 901 141 996 145" stroke="#edf5ff" stroke-opacity="0.5" stroke-width="2" stroke-linecap="round" stroke-dasharray="5 9"/>
  <path d="M168 269C261 221 332 201 441 202C552 202 636 248 747 241C851 233 936 184 1048 189" stroke="#f3b65d" stroke-opacity="0.55" stroke-width="2" stroke-linecap="round" stroke-dasharray="4 8"/>

  <circle cx="425" cy="158" r="7" fill="#e7f0fb"/>
  <circle cx="747" cy="241" r="8" fill="#f3b65d"/>
  <circle cx="995" cy="145" r="6" fill="#9dc3eb"/>

  <rect x="36" y="31" width="216" height="76" rx="10" fill="#f8fbff" fill-opacity="0.1"/>
  <text x="52" y="62" fill="#f2f8ff" font-size="18" font-family="Libre Franklin, Arial, sans-serif" font-weight="700">Lloyd's Market</text>
  <text x="52" y="88" fill="#d4e2f3" font-size="16" font-family="Libre Franklin, Arial, sans-serif">Signal Dashboard</text>

  <rect x="864" y="390" width="280" height="152" rx="12" fill="url(#g3)"/>
  <path d="M900 498L943 452L986 469L1041 424L1091 449" stroke="#ebf3fc" stroke-width="3" stroke-linecap="round"/>
  <circle cx="943" cy="452" r="5" fill="#ebf3fc"/>
  <circle cx="986" cy="469" r="5" fill="#ebf3fc"/>
  <circle cx="1041" cy="424" r="5" fill="#f3b65d"/>
  <circle cx="1091" cy="449" r="5" fill="#ebf3fc"/>
</svg>
